<svg xmlns="http://www.w3.org/2000/svg" width="1920" height="811" fill="none"><mask id="a" style="mask-type:alpha" maskUnits="userSpaceOnUse" x="0" y="0" width="1920" height="811"><path fill="#EDF2EC" d="M0 60h1920v751H0z"></path><path d="M1920 61.654V11.84c-2.2.428-4.49 1.061-2.69 1.843-2.74.66-5.58.712-8.35.15-1.08.378-.71.42-.14.482l.15.018.2.024c.45.065.86.184.68.518-1.5-.615-2.75-.429-4.06-.163l-.59.125c-1.13.23-2.3.438-3.68.186 2.03 1.862-13.92 3.5-9.12 2.03-3.08.372-9.05.726-8.37-1.434-2.06.372-4.07-.521-4.17 0 1.8.54.65.613-.56.709l-.24.018-.23.02c-.22.02-.43.043-.61.072 3.73.987 2.71 1.862 3.45 3.11-4.14 1.32-7.11-1.006-11.67.483 0-.713-1.81-1.326-3.67-1.99l-.54-.19c-.96-.353-1.91-.724-2.57-1.134.38.429-4.53.503-4.18 0-1.05-1.19 2.26-1.08 1.6-2.14-2.01 0-1.78.502-4.15.335l.45.521c-1.39-.149-2.8-.205-4.07-.28l1.11-.334-.48-.107c-2.51-.547-4.96-1.013-4.58-1.922-2.66.279-2.61-.373-4.19-.447 0 .447-.62.689-1.65.819a3.739 3.739 0 0 0-3.34-.466l-1.25.168-1.25-.13a52.145 52.145 0 0 1-5.84-.41c3.5-.205 1.76-2.383 4.92-1.861a6.439 6.439 0 0 1-4.27-2.57c-4.21.555-4.69-.102-4.94-.774l-.05-.168-.04-.11c-.11-.308-.28-.583-.87-.697l-.81.124c-1.9.289-3.7.592-4.14 1.309l.43.372-1.27-.111c.11.335.28.633 1.7.502l1.25.112c-1.43.41-1.87 1.266-.24 1.657.46 0 1.27.093 1.98.167l-1.24.15c0 .465-.17.837-.8 1.079.52.101 1.08.185 1.64.27l.49.075c1.42.226 2.73.499 2.93 1.144-1.66.348-2.08.182-2.46.027l-.15-.056c-.28-.108-.64-.172-1.55.03l.43.39-1.27-.093c-2.15.373.71 1.564-.77 1.601-1.47.037-1.96-.242-1.69-.763-3.13-.242-1.3 1.005-4.15.856-.28-.475-2.64-.601-5.35-.694.3-.065.49-.182.39-.35-.67-.16-1.36-.25-2.03-.27-.34.276-.2.465.15.573l-.13-.005-.32-.01-.62-.022c-.73-.026-1.45-.056-2.12-.097-1.55.54.51.466 0 1.322a15.95 15.95 0 0 0-4.18-.186c0 .41-.7.619-1.45.815l-.42.107c-.68.18-1.32.378-1.41.735.29.47.82.56 1.36.596l.36.02c.29.017.57.041.82.128-2.7.677-1.64 1.882 1.31 2.066l.04.003-.13-.004c-1.67-.016-1.27.58-2.8.597-.9-.633-5.17-.633-5.82.112-1.52-.912-1.75-.596-4.18-.186-3.27-1.024-8.02 0-11.73-1.117.16.302-.23.441-.69.56l-.26.063c-.26.063-.52.127-.69.215 2.46.372.37.819 1.73 1.284-.45.058-1.1.058-1.77.049l-.46-.008-.43-.007c-1.2-.017-2.28 0-2.34.32 3.19.28-.09 1.098 1.74 1.861-1.09.238-2.21.35-3.32.335 1.47 1.083-.08 1.614-1.83 2.198l-.47.16-.31.111c-.22.074-.43.151-.62.23 3.84.485-2.9 2.682 2.61 3.128-3.62.168-4.63-.372-5.83.112 0 1.229.25 4.189-.65 5.045-1.21-.558-3.73-.335-6.7-.95-2.96-.614-4.71-1.861-10.07-1.396.16.652.21 1.285-1.62 1.34a38.615 38.615 0 0 1-10.9-1.86c0 .465-.62.688-1.64.818.48-.744-3.5-1.6-1.76-2.606-1.86-.28-5.39 0-5.88-.689v-.782c3.9-.242 9.99.15 12.49-.502-4.57-1.49-15.13-2.979-25.99-3.724-1.03 1.155-2.46.54-5.81.894-2.89-1.62-6.42-2.755-6.83-4.095-6.93-.28-14.36-.112-20.86-.429-.14 0-.59-.484-.85-.52-7.12-.708-13.47.278-14.26-2.384 1.45-.31 2.84-.87 4.1-1.657-1.87-.26-1.51-1.284-3.37-1.526-2.92.484-3.53.13-6.67.651-2.23-1.861-.42-5.044-2.73-6.31-.31-.173-1.14-.343-2.04-.526l-.48-.098c-1.75-.364-3.45-.791-1.73-1.405-4.28-.95-6.69-1.583-7.59-2.514-1.69.319-3.34.792-4.94 1.415-1.1-.054-1.68-.277-2.2-.523l-.23-.114c-.82-.402-1.63-.8-4.3-.573 0 .8-.71 1.36-2.44 1.638h-3.34a46.318 46.318 0 0 0-19.36-4.933c0 .67-1.94.575-4.04.494l-.53-.019c-1.4-.048-2.83-.06-3.74.195 1.19-.484-.62-1.582-1.75-2.085-.96.522-4.13-.13-5.81.633 1.71 0 1.7.689 2.53 1.024-.84.092-1.67.279-2.47.559 2.63 3.015-7.47 5.752-17.33 5.082-1.62.496-2.77 1.219-3.89 1.938l-.63.403-.4.246c-1.72 1.052-3.67 1.94-7.43 1.88-1.86 1.527-2.88 3.333-6.48 4.357-2.03.149-1.88-.447-4.2-.187-1.86.913-1.5 2.514-6.56 2.495 1.68 1.731 1.96 2.57-1.55 3.723l.45.391h-3.59l1.48-.316c-.21-.28-1.4-.596-1.68-.224l.11.559.77.484-1.52.149-.99-.373c-2.33.317.26 1.117 0 1.583-9.89 1.266-22.53 1.582-33.29 1.861 0-.335-1.07-.353-.85-.782 1.47-.949 3.99-1.6 4.9-2.736-4.4.356-6.02-.233-7.56-.853l-.35-.143c-1.47-.596-3.07-1.155-7.17-.866-.13.575-1.58.777-3.02.974l-.45.063c-.22.032-.45.064-.66.099-.85-.4-1.96-.726-3.05-1.054l-.47-.14c-2.43-.73-4.67-1.517-4.15-3.162-2.62-.28-2.19-1.862-3.44-2.588-2.65-1.433-8.79-2.029-10.14-3.723-11.19 1.713-22.4 2.588-30.01 0-5.61 1.08-3.18 2.904-9.04 3.872-.24.614.17 1.024.88 1.303-6.44.987 1.58 2.234-2.35 4.021-3.57-.893-6.32-.447-12.51-.297.09 1.507-3.62 1.861-5.73 2.755-2.33-.639-4.73-.548-7.13-.411l-1.2.069c-1.4.077-2.8.13-4.2.025-1.72 1.229-2.87 1.005-7.47 1.21-.62 1.229.95.726 1.72 1.024-2.71.577-1.87.633-1.61 1.862-6.33 1.861-10.45-.633-18.37-.466.49.752-1.18.872-2.88.985l-.41.028c-1.06.073-2.06.162-2.48.42-6.32-1.321-20.53-2.047-25.85.205l-1.4-.013-1.41-.012-.7-.007-2.1-.019c-2.1-.02-4.19-.04-6.27-.07l-1.37-.019c-16.54-.25-31.61-1-37.8-4.756-29.86 2.048-57.12-2.364-82.57-.353 0 1.396 6.57 2.569 10.98 3.239 7.97 1.229 18.01.726 24.27 2.215-1.37.391-.64 1.229-.77 1.601-.87-.372-3.48-.209-6.18-.016l-.81.059c-2.84.204-5.6.385-6.36-.043l-1.25.15.02-.023 1.54-.524c-.5.142-1.01.306-1.5.49l.35-.353a8.68 8.68 0 0 0-5.83.633v-1.062c-10.19.112-20.4-.558-31.73-.465-8.27 0-17.51.558-26.66.465-4.22 0-9.62-.968-15.06-.781l-.29.01-.58.02c-.5.015-.99.028-1.49.04l-.9.017c-.6.01-1.2.016-1.8.017h-.58l-.6-.002-.58-.006c-7.46-.096-13.51-1.005-9.15-4.043-4.24-.457-8.45-1.172-12.61-2.141l-.82.149.4-.8.42.39c4.47-.31 8.94-.129 13.37.54 1.51.28 0 .391 1.7 1.024 3.56.823 7.27.823 10.85 0 .65-.763-1.19-.67-.88-1.303 2.89 1.098 6.85-.093 7.47-1.191a100.005 100.005 0 0 0-20.09-2.03c-1.86-.856-5.15-1.174-8.5-1.44l-1.01-.08c-1.34-.103-2.67-.207-3.89-.341-1.87-.205-3.25-.8-5.05-.968-2.14-.205-4.96 0-6.68-.15-.58 0-1.05-.707-1.7-.762a77.118 77.118 0 0 0-14.19-.28 331.835 331.835 0 0 0-35.1-3.071c-3.06 3.015-12.93.521-21.64.93 0-.502-1.22-.577-2.46-.642l-.49-.026c-1.07-.061-2.02-.157-2.09-.56-2.01 0-1.86.521-4.16.335-2.23-.342-5.51-.384-9.02-.389h-2.9l-1.05-.002c-5.26-.018-10.405-.16-12.943-1.247h.358c.925-.005 2.026-.037 2.125-.317l-1.251-.111.41-.41a39.437 39.437 0 0 0-5.003.372c-.914-1.303-5.283-1.414-9.222-1.694a5.745 5.745 0 0 1-4.127 1.397 54.615 54.615 0 0 1-6.776-3.053c-.208 3.07-5.351 4.7-10.99 6.165l-.722.187-.725.185c-.485.123-.971.246-1.454.37V11.84c-2.203.428-4.481 1.061-2.689 1.843-2.736.66-5.586.712-8.344.149-1.085.379-.711.42-.147.483l.157.017.193.025c.45.065.862.184.674.517-1.494-.614-2.755-.428-4.052-.163l-.602.126c-1.113.23-2.283.438-3.673.186 2.035 1.862-13.909 3.5-9.111 2.03-3.08.372-9.055.725-8.382-1.434-2.054.372-4.071-.521-4.164 0 1.793.539.647.613-.569.709l-.228.018-.226.02a9.57 9.57 0 0 0-.619.072c3.733.987 2.706 1.862 3.453 3.109-4.145 1.322-7.114-1.005-11.669.484 0-.713-1.808-1.326-3.672-1.99l-.532-.19c-.972-.354-1.914-.724-2.573-1.134.373.428-4.537.503-4.182 0-1.045-1.191 2.259-1.08 1.588-2.14-1.999 0-1.774.502-4.146.335l.448.52c-1.381-.148-2.8-.204-4.07-.279l1.121-.335-.486-.107c-2.512-.546-4.96-1.012-4.574-1.922-2.67.28-2.614-.372-4.201-.446 0 .446-.616.688-1.642.819a3.744 3.744 0 0 0-3.342-.466l-1.251.168-1.251-.13a52.306 52.306 0 0 1-5.844-.41c3.51-.205 1.774-2.383 4.93-1.862a6.444 6.444 0 0 1-4.277-2.569c-4.206.555-4.686-.102-4.928-.774l-.057-.168-.039-.11c-.115-.309-.284-.583-.875-.698l-.814.125c-1.893.289-3.693.592-4.133 1.309l.429.372-1.27-.112c.112.336.281.633 1.7.503l1.25.112c-1.437.41-1.866 1.266-.242 1.657.467 0 1.269.093 1.978.167l-1.232.15c0 .464-.168.837-.802 1.079.512.101 1.08.185 1.643.27l.481.075c1.434.226 2.735.499 2.935 1.144-1.663.348-2.083.181-2.461.027l-.143-.056c-.29-.108-.641-.172-1.559.03l.429.39-1.269-.093c-2.147.372.709 1.564-.766 1.6-1.474.038-1.96-.241-1.699-.762-3.117-.242-1.288 1.005-4.145.856-.285-.475-2.637-.602-5.353-.694.304-.065.491-.183.391-.35a9.928 9.928 0 0 0-2.036-.27c-.332.276-.179.465.16.572l-.131-.004-.313-.01-.625-.022a90.41 90.41 0 0 1-2.118-.097c-1.55.54.504.465 0 1.322a15.954 15.954 0 0 0-4.183-.186c0 .41-.7.619-1.455.815l-.413.107c-.686.18-1.32.378-1.417.735.294.47.818.559 1.358.596l.358.02c.297.017.583.04.823.128-2.697.677-1.636 1.881 1.322 2.066l.036.003-.134-.004c-1.676-.016-1.269.58-2.792.597-.896-.633-5.172-.633-5.825.112-1.512-.912-1.755-.596-4.182-.186-3.268-1.024-8.01 0-11.725-1.117.162.302-.232.441-.699.56l-.258.063c-.26.062-.515.126-.686.214 2.465.373.373.82 1.737 1.285-.458.058-1.104.058-1.782.049l-.454-.008-.429-.007c-1.205-.017-2.287 0-2.339.32 3.193.279-.093 1.098 1.736 1.861-1.091.238-2.206.35-3.323.335 1.467 1.083-.074 1.613-1.817 2.198l-.477.16-.319.11c-.21.075-.418.152-.617.232 3.846.484-2.893 2.68 2.614 3.127-3.622.168-4.63-.372-5.825.112 0 1.229.242 4.188-.654 5.045-1.214-.559-3.734-.335-6.701-.95-2.969-.614-4.706-1.861-10.064-1.396.149.652.205 1.285-1.624 1.34a38.645 38.645 0 0 1-10.904-1.861c0 .465-.616.689-1.642.819.485-.745-3.492-1.6-1.755-2.606-1.867-.28-5.396 0-5.881-.69v-.78c3.901-.243 9.988.148 12.49-.503-4.574-1.49-15.123-2.98-25.989-3.724-1.026 1.154-2.464.54-5.806.894-2.893-1.62-6.422-2.755-6.834-4.096-6.925-.279-14.356-.111-20.853-.428-.15 0-.597-.484-.859-.521-7.113-.707-13.461.28-14.264-2.383 1.456-.31 2.845-.87 4.108-1.657-1.868-.26-1.512-1.284-3.379-1.526-2.913.484-3.529.13-6.665.651-2.223-1.861-.412-5.045-2.726-6.31-.312-.174-1.146-.343-2.044-.526l-.479-.098c-1.759-.365-3.454-.791-1.735-1.406-4.275-.95-6.682-1.582-7.579-2.513a27.93 27.93 0 0 0-4.948 1.415c-1.091-.054-1.678-.277-2.195-.523l-.235-.114c-.818-.402-1.633-.801-4.291-.573 0 .8-.709 1.359-2.446 1.638h-3.341a46.319 46.319 0 0 0-19.361-4.933c0 .67-1.933.574-4.035.494l-.527-.019c-1.413-.048-2.835-.06-3.746.195 1.195-.484-.616-1.582-1.755-2.085-.952.521-4.126-.13-5.806.633 1.718 0 1.699.689 2.539 1.024-.846.091-1.68.279-2.484.558 2.633 3.016-7.467 5.753-17.325 5.083-1.626.496-2.773 1.218-3.89 1.938l-.629.403-.393.246c-1.72 1.052-3.683 1.94-7.428 1.88-1.867 1.527-2.894 3.333-6.498 4.357-2.016.148-1.867-.447-4.181-.187-1.868.913-1.512 2.513-6.572 2.495 1.679 1.731 1.96 2.569-1.55 3.723l.448.391h-3.585l1.475-.316c-.205-.28-1.4-.596-1.68-.224l.112.559.766.484-1.512.149-.991-.373c-2.333.317.262 1.117 0 1.583-9.894 1.266-22.534 1.582-33.287 1.861 0-.335-1.083-.354-.859-.782 1.475-.949 3.995-1.6 4.91-2.736-4.414.356-6.034-.233-7.566-.853l-.353-.143c-1.476-.596-3.062-1.156-7.166-.866-.133.575-1.576.776-3.015.974l-.453.063c-.225.031-.445.064-.658.099-.857-.4-1.955-.726-3.054-1.054l-.47-.14c-2.423-.73-4.679-1.517-4.149-3.162-2.614-.28-2.184-1.862-3.436-2.588-2.651-1.433-8.794-2.029-10.137-3.723-11.202 1.713-22.404 2.588-30.022 0-5.6 1.08-3.173 2.904-9.035 3.872-.243.614.167 1.024.877 1.303-6.441.987 1.587 2.234-2.352 4.021-3.566-.893-6.311-.447-12.51-.298.094 1.508-3.621 1.862-5.73 2.755-2.326-.638-4.719-.547-7.124-.41l-1.203.069c-1.403.077-2.808.13-4.202.025-1.717 1.229-2.874 1.005-7.467 1.21-.616 1.229.952.726 1.717 1.024-2.706.577-1.867.633-1.605 1.861-6.33 1.862-10.455-.633-18.371-.465.481.752-1.182.872-2.875.985l-.422.028c-1.053.072-2.049.162-2.472.42-6.329-1.321-20.537-2.047-25.857.205l-1.4-.013-1.401-.013-.701-.006-2.101-.02c-2.1-.019-4.195-.04-6.27-.068l-1.381-.02c-16.529-.25-31.601-1-37.79-4.756-29.872 2.048-57.129-2.364-82.576-.354 0 1.397 6.571 2.57 10.977 3.24 7.972 1.228 18.016.726 24.271 2.215-1.363.39-.634 1.229-.766 1.601-.868-.372-3.477-.209-6.178-.016l-.81.058c-2.838.204-5.594.385-6.361-.042l-1.25.149.023-.022 1.542-.525c-.509.143-1.013.307-1.509.491l.355-.354a8.67 8.67 0 0 0-5.826.633v-1.06c-10.193.11-20.406-.56-31.738-.466-8.27 0-17.512.558-26.661.465-4.219 0-9.615-.968-15.047-.782l-.294.01-.589.02c-.492.016-.989.029-1.487.04l-.898.018c-.599.01-1.197.015-1.792.017h-.592l-.59-.002-.591-.006c-7.459-.096-13.503-1.005-9.149-4.043a104.96 104.96 0 0 1-12.601-2.141l-.822.149.392-.8.43.39c4.461-.31 8.944-.129 13.367.54 1.513.28-.001.391 1.699 1.024 3.568.823 7.279.823 10.847 0 .653-.763-1.195-.67-.878-1.303 2.894 1.098 6.853-.093 7.469-1.192a99.954 99.954 0 0 0-20.09-2.029c-1.853-.856-5.144-1.175-8.498-1.44l-1.006-.08c-1.341-.104-2.67-.207-3.9-.341-1.867-.205-3.248-.8-5.041-.968-2.147-.205-4.967 0-6.684-.15-.578 0-1.046-.707-1.699-.763a77.13 77.13 0 0 0-14.189-.279 332.098 332.098 0 0 0-35.099-3.071c-3.062 3.015-12.938.52-21.638.93 0-.502-1.223-.577-2.465-.642l-.494-.026c-1.062-.061-2.017-.157-2.082-.56-2.016 0-1.867.521-4.163.335-2.234-.342-5.508-.384-9.024-.389h-2.898l-1.051-.002c-5.255-.018-10.403-.16-12.941-1.247h.358c.924-.005 2.026-.038 2.125-.317l-1.251-.111.41-.41a39.432 39.432 0 0 0-5.003.372c-.914-1.303-5.283-1.415-9.222-1.694a5.742 5.742 0 0 1-4.127 1.396 54.685 54.685 0 0 1-6.777-3.053c-.207 3.07-5.35 4.7-10.99 6.166l-.721.187-.726.185L0 13.385v48.268h1920zM47.213 9.92l-7.869.336c2.598 0 5.178-.135 7.87-.336zm531.71 13.003-5.621-1.009a27.7 27.7 0 0 0 5.621 1.009zm6.182-10.37c2.081 1.186 4.41 1.585 6.682 1.144.744-1.502-5.342-2.51-6.682-1.143zM697.732 1.39h-3.372l.292.494-.854.325c.978.919 4.159.359 3.934-.819zm16.918 4.832c-1.023-.303-5.485-.538-5.677.336 1.678.413 3.39.676 5.115.785.169-.359.798-.516.562-1.121zm.562 6.288c-.157.617-1.517.628-2.248.28.068.684.832 1.043 2.248 1.122-.337-.516 1.653-1.166 0-1.402zm17.649 6.726c1.731.19 1.664-.47 3.372-.28.192-1.412-3.867-.84-3.372.28zm.528-9.987c-.258.851 1.215.863 2.833.795.124-1.322-.82-.896-2.833-.795zm3.643 4.125a12.754 12.754 0 0 0-2.833-.258l2.833.258zm9.319.605c-1.102-.057-1.43.245-1.702.578l-.116.144a1.586 1.586 0 0 1-.431.399c1.439 0 2.249-.404 2.249-1.121zm2.248-5.638h-1.698l.034.538h1.664V8.34zm2.349 9.427v.807h1.698c.101-.594-.461-.863-1.698-.807zm2.776-10.01c1.821-.236 1.124.706 2.248.807 1.517-.538-1.563-2.119-2.248-.807zm7.679 4.965-5.104-1.602c.202.235.381.493.527.65 1.664.168 3.014.74 4.577.952zm.247-10.01c1.248.583 2.316-.28 4.496 0 .709-1.21-5.182-1.177-4.496 0zm10.263 15.492c-.832-.134-1.428-.392-2.248-.527-.607.684 1.9 1.188 2.248.527zm-1.709-1.603c1.125 0 .731.729 2.249.527.449-.605-2.069-1.099-2.249-.527zm5.677.505c0 .47.439.694 1.124.806.821-.392.821-1.053-1.124-.806zm3.069-8.509-1.99-1.345c-.258.673.866 1.099 1.99 1.345zm2.751 19.79c-1.267.515.434 1.435 2.461 1.524 1.212-.493-.001-1.636-2.461-1.524zm.959-16.707c.742 0 .517.47 1.124.538.652-.56-.888-1.29-1.124-.538zm7.329 15.335c-2.192-.157-2.192 1.345 0 1.12v-1.12zm15.097-18.743-.854-.134.281-.404c-2.013.437-4.665-.639-4.497 1.121.09.493 1.922.157 2.248.527l.574.135.562.134c.14-.291.435-.518.759-.731l.392-.252c.195-.126.383-.254.535-.396zm56.553.584-2.107-.897-.141.157c.469.202 1.156.381 2.248.74zm3.935-3.6c-1.971-.045-3.183.135-3.373.695a6.89 6.89 0 0 0 3.373-.695zm11.815 5.217c1.118 0 .575.784 2.154.583.607-.695-2.377-1.166-2.154-.583zm129.821-.552-7.866.336c2.596 0 5.176-.134 7.866-.336zm531.71 13.003-5.62-1.009c1.85.53 3.72.868 5.62 1.01zm6.19-10.369c2.08 1.185 4.4 1.584 6.67 1.143.76-1.502-5.34-2.51-6.67-1.143zM1657.73 1.39h-3.37l.29.493-.85.325c.97.92 4.16.359 3.93-.818zm16.92 4.831c-1.02-.303-5.49-.538-5.68.336 1.68.413 3.4.676 5.12.785.17-.359.8-.516.56-1.121zm.56 6.289c-.16.616-1.52.627-2.25.28.07.684.83 1.042 2.25 1.12-.34-.515 1.65-1.165 0-1.4zm17.65 6.725c1.73.191 1.66-.47 3.37-.28.19-1.412-3.86-.84-3.37.28zm.53-9.987c-.26.852 1.21.863 2.83.796.12-1.323-.82-.897-2.83-.796zm3.64 4.125c-.93-.191-1.88-.278-2.83-.258l2.83.258zm9.32.605c-1.1-.057-1.43.245-1.7.578l-.12.145c-.11.143-.24.285-.43.398 1.44 0 2.25-.404 2.25-1.12zm2.25-5.638h-1.7l.03.538h1.67V8.34zm2.35 9.427v.807h1.69c.11-.594-.46-.863-1.69-.807zm2.77-10.01c1.82-.236 1.13.706 2.25.807 1.52-.538-1.56-2.119-2.25-.807zm7.68 4.966-5.1-1.603c.2.235.38.493.53.65 1.66.168 3.01.74 4.57.953zm.25-10.01c1.25.582 2.31-.28 4.5 0 .7-1.211-5.19-1.178-4.5 0zm10.26 15.491c-.83-.134-1.43-.392-2.25-.527-.6.684 1.9 1.189 2.25.527zm-1.71-1.603c1.13 0 .73.729 2.25.527.45-.605-2.07-1.099-2.25-.527zm5.68.505c0 .47.44.695 1.12.807.82-.393.82-1.054-1.12-.807zm3.07-8.509-1.99-1.345c-.26.673.86 1.099 1.99 1.345zm2.75 19.79c-1.27.516.43 1.435 2.46 1.524 1.22-.493 0-1.636-2.46-1.524zm.96-16.707c.74 0 .52.47 1.12.538.65-.56-.89-1.289-1.12-.538zm7.33 15.335c-2.19-.157-2.19 1.345 0 1.12v-1.12zm15.09-18.743-.85-.134.28-.404c-2.01.438-4.66-.639-4.49 1.121.08.494 1.92.157 2.24.527l.58.135.56.134c.14-.291.44-.518.76-.731l.4-.252c.19-.126.38-.254.52-.396zm56.56.584-2.11-.897-.14.157c.47.202 1.16.381 2.25.74zm3.93-3.6c-1.96-.044-3.18.135-3.37.695 1.16.06 2.31-.177 3.37-.695zm11.82 5.217c1.11 0 .57.785 2.16.583.6-.695-2.39-1.166-2.16-.583z" fill="#EDF2EC"></path></mask><g mask="url(#a)"><path fill="#000" d="M2034-492H0V811h2034z"></path></g></svg>