<svg width="166" height="43" viewBox="0 0 166 43" fill="none" xmlns="http://www.w3.org/2000/svg">
<path d="M56.91 32.27C56.29 32.27 55.77 32.13 55.35 31.85C54.93 31.55 54.67 31.15 54.57 30.65C54.47 30.13 54.56 29.55 54.84 28.91L62.31 12.83C62.67 12.05 63.11 11.48 63.63 11.12C64.17 10.76 64.78 10.58 65.46 10.58C66.14 10.58 66.73 10.76 67.23 11.12C67.75 11.48 68.2 12.05 68.58 12.83L76.05 28.91C76.37 29.55 76.48 30.13 76.38 30.65C76.3 31.17 76.05 31.57 75.63 31.85C75.23 32.13 74.73 32.27 74.13 32.27C73.33 32.27 72.71 32.09 72.27 31.73C71.85 31.37 71.47 30.79 71.13 29.99L69.51 26.18L71.61 27.71H59.25L61.38 26.18L59.76 29.99C59.4 30.79 59.03 31.37 58.65 31.73C58.27 32.09 57.69 32.27 56.91 32.27ZM65.4 16.61L61.92 24.92L61.08 23.48H69.81L68.97 24.92L65.46 16.61H65.4ZM88.7735 32.33C86.3535 32.33 84.2935 31.88 82.5935 30.98C80.9135 30.08 79.6335 28.82 78.7535 27.2C77.8735 25.58 77.4335 23.69 77.4335 21.53C77.4335 19.85 77.6935 18.34 78.2135 17C78.7535 15.64 79.5235 14.48 80.5235 13.52C81.5235 12.54 82.7435 11.8 84.1835 11.3C85.6435 10.78 87.2935 10.52 89.1335 10.52C90.1335 10.52 91.1535 10.62 92.1935 10.82C93.2335 11 94.2535 11.35 95.2535 11.87C95.7735 12.11 96.1235 12.45 96.3035 12.89C96.5035 13.31 96.5635 13.76 96.4835 14.24C96.4235 14.7 96.2535 15.13 95.9735 15.53C95.7135 15.91 95.3535 16.17 94.8935 16.31C94.4335 16.43 93.9135 16.36 93.3335 16.1C92.7335 15.82 92.0835 15.61 91.3835 15.47C90.6835 15.31 89.9435 15.23 89.1635 15.23C87.8235 15.23 86.7035 15.47 85.8035 15.95C84.9235 16.43 84.2635 17.14 83.8235 18.08C83.3835 19.02 83.1635 20.17 83.1635 21.53C83.1635 23.57 83.6635 25.11 84.6635 26.15C85.6635 27.19 87.1435 27.71 89.1035 27.71C89.7035 27.71 90.3535 27.65 91.0535 27.53C91.7735 27.41 92.4935 27.24 93.2135 27.02L92.1935 29.09V23.96H90.0935C89.4135 23.96 88.8835 23.79 88.5035 23.45C88.1435 23.11 87.9635 22.63 87.9635 22.01C87.9635 21.39 88.1435 20.92 88.5035 20.6C88.8835 20.26 89.4135 20.09 90.0935 20.09H94.5335C95.2335 20.09 95.7635 20.28 96.1235 20.66C96.5035 21.02 96.6935 21.55 96.6935 22.25V28.88C96.6935 29.48 96.5635 29.99 96.3035 30.41C96.0635 30.83 95.6735 31.13 95.1335 31.31C94.1935 31.63 93.1735 31.88 92.0735 32.06C90.9735 32.24 89.8735 32.33 88.7735 32.33ZM102.846 32.27C101.966 32.27 101.286 32.03 100.806 31.55C100.326 31.05 100.086 30.36 100.086 29.48V13.64C100.086 12.74 100.326 12.05 100.806 11.57C101.306 11.09 101.996 10.85 102.876 10.85H110.256C112.656 10.85 114.506 11.44 115.806 12.62C117.126 13.78 117.786 15.4 117.786 17.48C117.786 18.82 117.486 19.99 116.886 20.99C116.306 21.97 115.456 22.73 114.336 23.27C113.236 23.79 111.876 24.05 110.256 24.05L110.496 23.51H111.936C112.796 23.51 113.556 23.72 114.216 24.14C114.876 24.54 115.426 25.16 115.866 26L117.366 28.7C117.686 29.28 117.836 29.85 117.816 30.41C117.796 30.95 117.576 31.4 117.156 31.76C116.756 32.1 116.166 32.27 115.386 32.27C114.606 32.27 113.966 32.11 113.466 31.79C112.986 31.47 112.556 30.97 112.176 30.29L109.446 25.28C109.206 24.84 108.896 24.54 108.516 24.38C108.156 24.2 107.736 24.11 107.256 24.11H105.606V29.48C105.606 30.36 105.376 31.05 104.916 31.55C104.456 32.03 103.766 32.27 102.846 32.27ZM105.606 20.21H109.266C110.326 20.21 111.136 20 111.696 19.58C112.256 19.16 112.536 18.51 112.536 17.63C112.536 16.79 112.256 16.16 111.696 15.74C111.136 15.3 110.326 15.08 109.266 15.08H105.606V20.21ZM131.021 32.33C128.881 32.33 127.001 31.88 125.381 30.98C123.761 30.06 122.501 28.78 121.601 27.14C120.721 25.5 120.281 23.59 120.281 21.41C120.281 19.77 120.531 18.28 121.031 16.94C121.551 15.6 122.281 14.45 123.221 13.49C124.181 12.53 125.321 11.8 126.641 11.3C127.961 10.78 129.421 10.52 131.021 10.52C133.161 10.52 135.031 10.97 136.631 11.87C138.251 12.77 139.511 14.04 140.411 15.68C141.311 17.3 141.761 19.21 141.761 21.41C141.761 23.05 141.501 24.54 140.981 25.88C140.481 27.22 139.751 28.38 138.791 29.36C137.851 30.32 136.721 31.06 135.401 31.58C134.081 32.08 132.621 32.33 131.021 32.33ZM131.021 27.71C132.081 27.71 132.981 27.46 133.721 26.96C134.461 26.46 135.031 25.74 135.431 24.8C135.831 23.86 136.031 22.73 136.031 21.41C136.031 19.43 135.591 17.89 134.711 16.79C133.831 15.69 132.601 15.14 131.021 15.14C129.981 15.14 129.081 15.39 128.321 15.89C127.581 16.37 127.011 17.08 126.611 18.02C126.211 18.94 126.011 20.07 126.011 21.41C126.011 23.39 126.451 24.94 127.331 26.06C128.211 27.16 129.441 27.71 131.021 27.71ZM147.3 32.27C146.46 32.27 145.82 32.05 145.38 31.61C144.94 31.17 144.72 30.52 144.72 29.66V13.31C144.72 12.43 144.94 11.76 145.38 11.3C145.82 10.82 146.4 10.58 147.12 10.58C147.76 10.58 148.26 10.7 148.62 10.94C148.98 11.18 149.38 11.58 149.82 12.14L159.33 24.02H158.49V13.16C158.49 12.32 158.7 11.68 159.12 11.24C159.56 10.8 160.2 10.58 161.04 10.58C161.88 10.58 162.51 10.8 162.93 11.24C163.37 11.68 163.59 12.32 163.59 13.16V29.78C163.59 30.54 163.39 31.15 162.99 31.61C162.59 32.05 162.05 32.27 161.37 32.27C160.69 32.27 160.15 32.15 159.75 31.91C159.37 31.65 158.96 31.25 158.52 30.71L149.01 18.8H149.85V29.66C149.85 30.52 149.63 31.17 149.19 31.61C148.77 32.05 148.14 32.27 147.3 32.27Z" fill="#114F34"/>
<g clip-path="url(#clip0_155_11)">
<path fill-rule="evenodd" clip-rule="evenodd" d="M22.7895 4.28271C22.8465 4.28271 22.9223 4.28271 22.9793 4.28271C23.0362 4.28271 23.1121 4.28271 23.169 4.28271C23.2259 4.28271 23.2828 4.28271 23.3587 4.28271C23.4157 4.28271 23.4726 4.28271 23.5485 4.28271C23.6054 4.28271 23.6623 4.28271 23.7382 4.28271C23.7951 4.28271 23.8521 4.28271 23.928 4.30209C24.8766 4.36023 25.8063 4.49587 26.6981 4.68966C26.5843 4.67028 26.4704 4.6509 26.3376 4.63152H26.3186C26.2807 4.63152 26.2238 4.61214 26.1858 4.61214H26.1668H26.1289H26.072H26.053H26.034L25.9392 4.59276H25.9202H25.9012H25.8822H25.8633H25.8443H25.8253H25.8063H25.7874H25.7684H25.7494H25.7305H25.6925H25.6735H25.6546H25.6356H25.6166H25.5976H25.5787H25.5597H25.5407H25.5217H25.5028L25.4269 4.57339L25.332 4.55401H25.313H25.2941H25.2751H25.2561L25.1992 4.53463H25.1423C24.63 4.4765 24.1177 4.43774 23.5674 4.41836C23.0362 4.39898 22.5049 4.39898 21.9737 4.41836H21.9357H21.8978H21.7839C21.708 4.41836 21.6321 4.41836 21.5562 4.43774H21.5373C21.4803 4.43774 21.4044 4.43774 21.3475 4.45712H21.2337C21.1198 4.45712 21.006 4.4765 20.9111 4.4765C20.8732 4.4765 20.8352 4.4765 20.7973 4.4765C20.7593 4.4765 20.7214 4.4765 20.6834 4.49587H20.6645H20.5696H20.4747C20.7024 4.4765 20.9111 4.43774 21.1388 4.41836C21.1768 4.41836 21.2337 4.41836 21.2716 4.39898H21.3286C21.3665 4.39898 21.4044 4.39898 21.4424 4.39898H21.4993C21.5373 4.39898 21.5752 4.39898 21.6132 4.39898H21.6891C21.727 4.39898 21.746 4.39898 21.7839 4.39898H21.8598C21.8978 4.39898 21.9167 4.39898 21.9547 4.39898C21.9926 4.39898 22.0116 4.39898 22.0496 4.39898C22.0875 4.39898 22.1065 4.39898 22.1444 4.39898C22.1634 4.39898 22.2013 4.39898 22.2203 4.39898C22.2583 4.39898 22.2772 4.39898 22.3152 4.39898C22.3531 4.39898 22.3911 4.39898 22.429 4.39898H22.5049C22.5618 4.39898 22.5998 4.39898 22.6567 4.39898H22.6947C22.6757 4.28271 22.7326 4.28271 22.7895 4.28271ZM35.2932 12.6347L36.2798 13.5648L36.2988 13.9524H38.0254C37.5321 13.4292 37.0198 12.9447 36.4696 12.4797L37.0008 12.4021C37.5511 13.061 38.0823 13.778 38.5377 14.5337C39.2207 15.6383 39.8089 16.8397 40.2453 18.0993L40.8525 18.9132C40.9474 19.3007 41.0233 19.7077 41.0802 20.1146H41.0612C41.0991 20.4053 41.1561 20.696 41.175 20.9866H41.194C41.213 21.1804 41.232 21.3548 41.2509 21.5486C41.194 21.5486 41.1371 21.5486 41.0991 21.5292C41.1181 21.7036 41.1561 21.8587 41.175 22.0331C40.0746 21.9555 38.9741 21.8974 37.8546 21.8974C27.1155 21.8974 17.2872 25.9668 9.79255 32.691C7.78134 30.0168 6.45318 26.7613 6.13063 23.2151L22.0496 23.1957L6.05473 21.0641C6.0737 20.1728 6.18755 19.3007 6.35831 18.4287L6.37728 18.3512V18.3318L6.39626 18.2543V18.2349L6.41523 18.1574C6.43421 18.0605 6.45318 17.983 6.47215 17.8861C6.49113 17.828 6.5101 17.7699 6.5101 17.7117C6.52907 17.6536 6.54805 17.5955 6.54805 17.5373L6.56702 17.4598V17.4404L6.58599 17.4017L6.60497 17.3629L6.64292 17.2467L6.66189 17.1498L6.68086 17.111L6.69984 17.0723C6.71881 17.0141 6.73778 16.956 6.75676 16.8979L6.77573 16.801C6.79471 16.7041 6.83265 16.6266 6.8706 16.5297C6.92752 16.3553 6.98444 16.1809 7.06034 16.0065L7.09828 15.929L7.13623 15.8514L7.17418 15.7545L7.21213 15.6577C7.93313 13.8555 9.0336 12.1696 10.4566 10.6969L10.5135 10.6387L10.5325 10.6194L10.5705 10.5806L10.5894 10.5612L10.6464 10.5031C10.6843 10.4643 10.7412 10.4256 10.7792 10.3868L10.7982 10.3674C10.893 10.2899 10.9879 10.193 11.0828 10.1155C11.1207 10.0768 11.1776 10.038 11.2156 9.99925L11.2725 9.94112L11.2915 9.92174L11.3294 9.88299L11.3484 9.86361L11.4053 9.82485L11.4243 9.80547L11.4812 9.76672H11.5002H11.5192L11.5761 9.72796L11.595 9.70858L11.652 9.66983L11.6899 9.65045L11.7279 9.63107L11.7658 9.59231H11.7848L11.8038 9.57294L11.8417 9.53418L11.8797 9.49542L11.9176 9.47605L11.9556 9.43729L11.9935 9.39853H12.0125H12.0314L12.0884 9.35978L12.1263 9.3404L12.1643 9.30164L12.2022 9.28226L12.2402 9.26289L12.2591 9.24351L12.2971 9.20475L12.335 9.166L12.373 9.12724L12.4109 9.08848L12.5248 8.91408L12.5437 8.8947L12.5817 8.87532L12.6196 8.83657L12.6576 8.81719L12.6955 8.77843L12.7335 8.75906L12.7714 8.73968L12.8283 8.70092L12.8473 8.68154L12.9042 8.64279L12.9232 8.62341L12.9801 8.58465L13.0181 8.56527L13.075 8.52652H13.094H13.1129L13.1699 8.48776L13.1888 8.46838H22.2393L14.9534 7.53824H14.9724L15.0103 7.51886L15.0483 7.49948H15.0672L15.1052 7.4801H15.1242L15.2001 7.44135L15.238 7.42197C17.2872 6.58871 19.4881 6.14301 21.6891 6.0655C22.2013 6.04612 22.6947 6.04612 23.207 6.0655H23.2259H23.2449H23.2639H23.2828H23.3018H23.3208H23.3398H23.3587H23.3777H23.4157H23.4346H23.4536H23.4726C23.5295 6.0655 23.5864 6.0655 23.6433 6.0655H23.6623H23.6813H23.7003H23.7192H23.7951H23.8141H23.8331H23.8521H23.871H23.89H23.909H23.928H23.9469H23.9659H23.9849H24.0038H24.0228H24.0418H24.0608H24.1177C24.3074 6.08488 24.5161 6.10426 24.7248 6.12363H24.7628C25.5028 6.22052 26.2617 6.33679 26.9827 6.5112V6.45306C28.937 6.89876 30.7585 7.6545 32.4282 8.68154C32.7317 8.85595 33.0353 9.03035 33.3199 9.22413C33.9081 9.63107 34.4773 10.0961 34.9896 10.6C35.6157 11.1619 36.2039 11.782 36.7542 12.4409L35.2932 12.6347ZM8.61618 33.7762C7.68647 32.5747 6.90855 31.257 6.28242 29.8618C6.24447 29.7649 6.18755 29.6486 6.1496 29.5518L6.13063 29.5324C6.09268 29.4742 6.0737 29.3967 6.05473 29.3386C5.95986 29.1254 5.88397 28.9123 5.7891 28.6797L5.77013 28.6604C5.75115 28.6022 5.7132 28.5247 5.69423 28.4666V28.4472C5.67526 28.3697 5.63731 28.3116 5.61834 28.234C5.59936 28.1565 5.56142 28.0984 5.54244 28.0209V28.0015C5.52347 27.9434 5.50449 27.8659 5.46655 27.8077L5.44757 27.769C5.4286 27.6915 5.40963 27.6333 5.39065 27.5558C5.37168 27.4783 5.3527 27.4008 5.31476 27.3233C5.27681 27.1682 5.21989 27.0132 5.18194 26.8776V26.8582C5.14399 26.7032 5.10605 26.5675 5.0681 26.4125V26.3931C5.04913 26.3156 5.03015 26.2575 5.01118 26.18V26.1606C4.9922 26.0831 4.97323 26.0249 4.97323 25.9474V25.9087C4.95426 25.8312 4.93528 25.773 4.93528 25.6955V25.6761C4.91631 25.5986 4.89734 25.5211 4.89734 25.4436C4.87836 25.3661 4.87836 25.2886 4.85939 25.2111V25.1917C4.84042 25.1142 4.84041 25.056 4.82144 24.9785V24.9591C4.80247 24.8816 4.80247 24.8041 4.78349 24.7266V24.7072C4.76452 24.6297 4.76452 24.5522 4.74555 24.4747V24.4553C4.72657 24.3778 4.72657 24.3003 4.7076 24.2228C4.68863 24.1453 4.68863 24.0678 4.68863 24.0096V23.9709C4.66965 23.7383 4.6317 23.5058 4.61273 23.2733H4.32812C4.32812 23.8934 4.36607 24.5135 4.42299 25.1142C4.44197 25.2692 4.46094 25.4436 4.47991 25.5986V25.618V25.6374V25.6568V25.6761V25.6955V25.7149V25.7536V25.773V25.7924V25.8118V25.8699V25.8893V25.9087V25.9281V25.9668V25.9862V26.0443V26.0637V26.0831V26.1025V26.1412V26.1606V26.18V26.2187H4.51786C4.57478 26.5675 4.6317 26.9357 4.7076 27.2845H4.66965L4.68863 27.362V27.3814V27.4008V27.4202V27.4395L4.7076 27.5171V27.5364V27.5558V27.5752V27.5946V27.6139V27.6333L4.72657 27.7302V27.7496L4.74555 27.8077V27.8271V27.8465V27.8659V27.8852V27.9046V27.924C4.78349 28.0984 4.84042 28.2728 4.87836 28.4472V28.5053C5.50449 30.6951 6.49113 32.7104 7.80031 34.4932C8.12286 34.2606 8.36952 34.0281 8.61618 33.7762ZM4.46094 20.851H4.42299L4.40402 20.8704C4.44197 20.5409 4.49889 20.2309 4.53684 19.9015V19.9208V19.9402V19.9596V19.979V19.9984V20.0177V20.0371V20.0565V20.0759V20.0952V20.1728V20.1921V20.2115V20.2309V20.2503C4.53684 20.289 4.53684 20.3472 4.51786 20.3859V20.4053V20.444V20.4634V20.4828V20.5022V20.5216V20.5409V20.5603V20.5797V20.5991V20.6185V20.6378V20.6572V20.6766V20.696V20.7153V20.7347V20.7541V20.7735V20.7929V20.8122H4.47991L4.46094 20.851ZM34.9327 20.9479H35.6537C35.5399 20.9479 35.407 20.9479 35.2932 20.9479C35.1604 20.9479 35.0465 20.9479 34.9327 20.9479Z" fill="url(#paint0_linear_155_11)"/>
<path fill-rule="evenodd" clip-rule="evenodd" d="M5.27385 21.8976C5.27385 21.7813 5.27385 21.6651 5.27385 21.5488C5.27385 21.5294 5.27385 21.5101 5.27385 21.5101C5.27385 17.3825 6.81072 13.255 9.90343 10.1157C13.0531 6.87959 17.5498 5.30996 21.9517 5.15494C22.9953 5.11618 24.0388 5.15493 25.0824 5.29058C28.232 5.65877 31.3247 6.7827 34 8.52672C36.4476 10.232 38.326 12.693 39.3506 15.5416C37.4912 13.0612 35.0056 11.0459 32.1027 9.82506C32.0647 9.80568 32.0268 9.80568 31.9888 9.80568C31.6093 9.74754 31.2488 10.0382 31.1919 10.4258C30.9263 13.0806 31.6283 15.8516 33.3549 18.1383C35.7646 21.3356 39.5593 22.789 43.2023 22.2852C44.6063 18.8165 44.2079 14.689 41.7982 11.4916C40.3183 9.53439 38.3071 8.21667 36.1441 7.61595C35.9164 7.49969 35.6887 7.4028 35.461 7.3059C35.8025 7.15088 36.1441 6.9571 36.4476 6.70518C37.7758 5.65877 38.3829 3.99225 38.1742 2.40324C36.7133 1.80252 35.0056 1.97693 33.6585 3.02334C33.3739 3.2365 33.1462 3.48842 32.9185 3.74033C24.7409 -1.99558 13.4515 -1.14295 6.16561 6.29824C-2.05 14.689 -2.05 28.3118 6.16561 36.7025C13.072 43.7755 23.6214 44.88 31.6852 40.0549C31.7422 40.0161 31.7991 39.9968 31.856 39.958C31.9129 39.9192 31.9509 39.8999 32.0078 39.8611C34.1139 38.5434 35.9923 36.8381 37.5291 34.8616L37.624 34.9585L37.4912 34.8228C34.0759 38.4077 29.3135 40.6362 24.0388 40.6362C13.793 40.6556 5.46359 32.2843 5.27385 21.8976Z" fill="#114F34"/>
<path fill-rule="evenodd" clip-rule="evenodd" d="M41.1715 23.6804C41.2094 23.661 41.2474 23.661 41.2853 23.6416C41.0577 23.6416 40.8489 23.6416 40.6213 23.6416C39.5018 23.6416 38.3824 23.6804 37.2819 23.7772C30.3565 24.3198 23.9054 26.5677 18.3082 30.1139V30.1526C16.0314 31.5866 13.8873 33.2531 11.9141 35.0941C13.6976 36.7412 15.8037 38.0395 18.1185 38.8728C22.7291 32.9625 28.8386 28.2923 35.8399 25.4825C37.6044 24.7655 39.4259 24.1842 41.3043 23.7191C41.2664 23.6804 41.2284 23.6804 41.1715 23.6804ZM35.6312 29.7263C35.4984 29.9007 35.3655 30.0751 35.2327 30.2495C35.3466 30.0751 35.4794 29.9007 35.6312 29.7263ZM34.8343 30.7727C34.6635 31.0053 34.4928 31.2572 34.322 31.4897C34.4928 31.2378 34.6446 31.0053 34.8343 30.7727ZM31.5898 36.5474C31.4949 36.7606 31.419 36.9544 31.3431 37.1675C31.419 36.9737 31.4949 36.7606 31.5898 36.5474ZM30.8878 38.4465C30.1857 38.7371 29.4647 38.9891 28.7248 39.1828C31.1913 34.4158 34.5117 30.172 38.4583 26.6646C39.2362 25.967 40.0331 25.3081 40.8679 24.688C40.9628 24.6299 41.0387 24.5524 41.1336 24.4942C41.1905 24.4555 41.2474 24.4167 41.3233 24.3586C41.4371 24.2811 41.551 24.2036 41.6648 24.1261C41.4941 25.4244 41.2094 26.684 40.7731 27.8854C40.0141 30.0364 38.8757 31.9742 37.4337 33.6601L37.4147 33.6795C36.2573 35.0165 34.9102 36.1792 33.4302 37.1288C33.4302 37.1288 33.4302 37.1288 33.4113 37.1288C32.9938 37.3807 32.5764 37.6326 32.14 37.8651C31.7416 38.0783 31.3052 38.2721 30.8878 38.4465ZM37.6614 27.4397C37.7183 27.3816 37.7562 27.3428 37.8132 27.2847C37.8701 27.2266 37.908 27.1878 37.9649 27.1297C38.0219 27.0715 38.0598 27.0328 38.1167 26.9746C38.1737 26.9165 38.2306 26.8777 38.2685 26.8196C38.3254 26.7615 38.3824 26.7227 38.4203 26.6646L37.6614 27.4397ZM35.0809 27.3428C33.9235 28.5249 32.8231 29.7845 31.7795 31.0828C30.4703 32.7493 29.256 34.5127 28.1935 36.373L28.1366 36.4505V36.4699L28.0607 36.6055L27.9848 36.7606L27.9089 36.8962L27.8899 36.935L27.833 37.0512L27.814 37.1094L27.7571 37.2063L27.7381 37.245L27.6812 37.3613L27.6622 37.4001L27.6053 37.5163L27.5863 37.5551L27.5104 37.6907L27.4345 37.8264V37.8457L27.4156 37.8651L27.3587 37.9814L27.3397 38.0202V38.0395L27.3017 38.0977V38.117L27.2448 38.2333V38.2527L27.2069 38.3108L27.1879 38.3496L27.131 38.4852V38.5046L27.0551 38.6596V38.679L26.9792 38.8147V38.834V38.8534C26.9033 39.0084 26.8274 39.1635 26.7515 39.2991C26.6946 39.4348 26.6187 39.5704 26.5618 39.706C25.7649 39.8223 24.949 39.8804 24.1331 39.8804C22.8809 39.8804 21.6665 39.7448 20.4712 39.4929C20.5281 39.4154 20.585 39.3379 20.642 39.2604C24.2659 34.4158 29.8063 30.3658 35.0809 27.3428Z" fill="#5B8C51"/>
</g>
<defs>
<linearGradient id="paint0_linear_155_11" x1="13.1757" y1="36.6286" x2="31.0033" y2="8.69385" gradientUnits="userSpaceOnUse">
<stop stop-color="#F78D2D"/>
<stop offset="1" stop-color="#FFF200"/>
</linearGradient>
<clipPath id="clip0_155_11">
<rect width="44" height="43" fill="white"/>
</clipPath>
</defs>
</svg>
