<svg width="186" height="47" viewBox="0 0 186 47" fill="none" xmlns="http://www.w3.org/2000/svg">
<path d="M62.298 37.306C61.5953 37.306 61.006 37.1473 60.53 36.83C60.054 36.49 59.7593 36.0367 59.646 35.47C59.5327 34.8807 59.6347 34.2233 59.952 33.498L68.418 15.274C68.826 14.39 69.3247 13.744 69.914 13.336C70.526 12.928 71.2173 12.724 71.988 12.724C72.7587 12.724 73.4273 12.928 73.994 13.336C74.5833 13.744 75.0933 14.39 75.524 15.274L83.99 33.498C84.3527 34.2233 84.4773 34.8807 84.364 35.47C84.2733 36.0593 83.99 36.5127 83.514 36.83C83.0607 37.1473 82.494 37.306 81.814 37.306C80.9073 37.306 80.2047 37.102 79.706 36.694C79.23 36.286 78.7993 35.6287 78.414 34.722L76.578 30.404L78.958 32.138H64.95L67.364 30.404L65.528 34.722C65.12 35.6287 64.7007 36.286 64.27 36.694C63.8393 37.102 63.182 37.306 62.298 37.306ZM71.92 19.558L67.976 28.976L67.024 27.344H76.918L75.966 28.976L71.988 19.558H71.92ZM98.41 37.374C95.6673 37.374 93.3327 36.864 91.406 35.844C89.502 34.824 88.0513 33.396 87.054 31.56C86.0567 29.724 85.558 27.582 85.558 25.134C85.558 23.23 85.8527 21.5187 86.442 20C87.054 18.4587 87.9267 17.144 89.06 16.056C90.1933 14.9453 91.576 14.1067 93.208 13.54C94.8627 12.9507 96.7327 12.656 98.818 12.656C99.9513 12.656 101.107 12.7693 102.286 12.996C103.465 13.2 104.621 13.5967 105.754 14.186C106.343 14.458 106.74 14.8433 106.944 15.342C107.171 15.818 107.239 16.328 107.148 16.872C107.08 17.3933 106.887 17.8807 106.57 18.334C106.275 18.7647 105.867 19.0593 105.346 19.218C104.825 19.354 104.235 19.2747 103.578 18.98C102.898 18.6627 102.161 18.4247 101.368 18.266C100.575 18.0847 99.736 17.994 98.852 17.994C97.3333 17.994 96.064 18.266 95.044 18.81C94.0467 19.354 93.2987 20.1587 92.8 21.224C92.3013 22.2893 92.052 23.5927 92.052 25.134C92.052 27.446 92.6187 29.1913 93.752 30.37C94.8853 31.5487 96.5627 32.138 98.784 32.138C99.464 32.138 100.201 32.07 100.994 31.934C101.81 31.798 102.626 31.6053 103.442 31.356L102.286 33.702V27.888H99.906C99.1353 27.888 98.5347 27.6953 98.104 27.31C97.696 26.9247 97.492 26.3807 97.492 25.678C97.492 24.9753 97.696 24.4427 98.104 24.08C98.5347 23.6947 99.1353 23.502 99.906 23.502H104.938C105.731 23.502 106.332 23.7173 106.74 24.148C107.171 24.556 107.386 25.1567 107.386 25.95V33.464C107.386 34.144 107.239 34.722 106.944 35.198C106.672 35.674 106.23 36.014 105.618 36.218C104.553 36.5807 103.397 36.864 102.15 37.068C100.903 37.272 99.6567 37.374 98.41 37.374ZM114.358 37.306C113.361 37.306 112.59 37.034 112.046 36.49C111.502 35.9233 111.23 35.1413 111.23 34.144V16.192C111.23 15.172 111.502 14.39 112.046 13.846C112.613 13.302 113.395 13.03 114.392 13.03H122.756C125.476 13.03 127.573 13.6987 129.046 15.036C130.542 16.3507 131.29 18.1867 131.29 20.544C131.29 22.0627 130.95 23.3887 130.27 24.522C129.613 25.6327 128.65 26.494 127.38 27.106C126.134 27.6953 124.592 27.99 122.756 27.99L123.028 27.378H124.66C125.635 27.378 126.496 27.616 127.244 28.092C127.992 28.5453 128.616 29.248 129.114 30.2L130.814 33.26C131.177 33.9173 131.347 34.5633 131.324 35.198C131.302 35.81 131.052 36.32 130.576 36.728C130.123 37.1133 129.454 37.306 128.57 37.306C127.686 37.306 126.961 37.1247 126.394 36.762C125.85 36.3993 125.363 35.8327 124.932 35.062L121.838 29.384C121.566 28.8853 121.215 28.5453 120.784 28.364C120.376 28.16 119.9 28.058 119.356 28.058H117.486V34.144C117.486 35.1413 117.226 35.9233 116.704 36.49C116.183 37.034 115.401 37.306 114.358 37.306ZM117.486 23.638H121.634C122.836 23.638 123.754 23.4 124.388 22.924C125.023 22.448 125.34 21.7113 125.34 20.714C125.34 19.762 125.023 19.048 124.388 18.572C123.754 18.0733 122.836 17.824 121.634 17.824H117.486V23.638ZM146.29 37.374C143.865 37.374 141.734 36.864 139.898 35.844C138.062 34.8013 136.634 33.3507 135.614 31.492C134.617 29.6333 134.118 27.4687 134.118 24.998C134.118 23.1393 134.402 21.4507 134.968 19.932C135.558 18.4133 136.385 17.11 137.45 16.022C138.538 14.934 139.83 14.1067 141.326 13.54C142.822 12.9507 144.477 12.656 146.29 12.656C148.716 12.656 150.835 13.166 152.648 14.186C154.484 15.206 155.912 16.6453 156.932 18.504C157.952 20.34 158.462 22.5047 158.462 24.998C158.462 26.8567 158.168 28.5453 157.578 30.064C157.012 31.5827 156.184 32.8973 155.096 34.008C154.031 35.096 152.75 35.9347 151.254 36.524C149.758 37.0907 148.104 37.374 146.29 37.374ZM146.29 32.138C147.492 32.138 148.512 31.8547 149.35 31.288C150.189 30.7213 150.835 29.9053 151.288 28.84C151.742 27.7747 151.968 26.494 151.968 24.998C151.968 22.754 151.47 21.0087 150.472 19.762C149.475 18.5153 148.081 17.892 146.29 17.892C145.112 17.892 144.092 18.1753 143.23 18.742C142.392 19.286 141.746 20.0907 141.292 21.156C140.839 22.1987 140.612 23.4793 140.612 24.998C140.612 27.242 141.111 28.9987 142.108 30.268C143.106 31.5147 144.5 32.138 146.29 32.138ZM164.74 37.306C163.788 37.306 163.063 37.0567 162.564 36.558C162.065 36.0593 161.816 35.3227 161.816 34.348V15.818C161.816 14.8207 162.065 14.0613 162.564 13.54C163.063 12.996 163.72 12.724 164.536 12.724C165.261 12.724 165.828 12.86 166.236 13.132C166.644 13.404 167.097 13.8573 167.596 14.492L178.374 27.956H177.422V15.648C177.422 14.696 177.66 13.9707 178.136 13.472C178.635 12.9733 179.36 12.724 180.312 12.724C181.264 12.724 181.978 12.9733 182.454 13.472C182.953 13.9707 183.202 14.696 183.202 15.648V34.484C183.202 35.3453 182.975 36.0367 182.522 36.558C182.069 37.0567 181.457 37.306 180.686 37.306C179.915 37.306 179.303 37.17 178.85 36.898C178.419 36.6033 177.955 36.15 177.456 35.538L166.678 22.04H167.63V34.348C167.63 35.3227 167.381 36.0593 166.882 36.558C166.406 37.0567 165.692 37.306 164.74 37.306Z" fill="white"/>
<g clip-path="url(#clip0_61_131)">
<path fill-rule="evenodd" clip-rule="evenodd" d="M25.4379 4.68066C25.5015 4.68066 25.5862 4.68066 25.6497 4.68066C25.7133 4.68066 25.798 4.68066 25.8616 4.68066C25.9251 4.68066 25.9886 4.68066 26.0734 4.68066C26.1369 4.68066 26.2004 4.68066 26.2852 4.68066C26.3487 4.68066 26.4122 4.68066 26.497 4.68066C26.5605 4.68066 26.6241 4.68066 26.7088 4.70184C27.7678 4.76539 28.8057 4.91365 29.8012 5.12546C29.6741 5.10428 29.547 5.0831 29.3987 5.06192H29.3775C29.3352 5.06192 29.2716 5.04074 29.2293 5.04074H29.2081H29.1657H29.1022H29.081H29.0598L28.9539 5.01956H28.9328H28.9116H28.8904H28.8692H28.848H28.8269H28.8057H28.7845H28.7633H28.7421H28.7209H28.6786H28.6574H28.6362H28.615H28.5939H28.5727H28.5515H28.5303H28.5091H28.488H28.4668L28.3821 4.99837L28.2762 4.97719H28.255H28.2338H28.2126H28.1914L28.1279 4.95601H28.0643C27.4925 4.89247 26.9206 4.85011 26.3063 4.82893C25.7133 4.80775 25.1202 4.80775 24.5272 4.82893H24.4848H24.4424H24.3154C24.2306 4.82893 24.1459 4.82893 24.0612 4.85011H24.04C23.9765 4.85011 23.8917 4.85011 23.8282 4.87129H23.7011C23.574 4.87129 23.4469 4.89247 23.341 4.89247C23.2987 4.89247 23.2563 4.89247 23.214 4.89247C23.1716 4.89247 23.1292 4.89247 23.0869 4.91365H23.0657H22.9598H22.8539C23.1081 4.89247 23.341 4.85011 23.5952 4.82893C23.6376 4.82893 23.7011 4.82893 23.7435 4.80775H23.807C23.8494 4.80775 23.8917 4.80775 23.9341 4.80775H23.9976C24.04 4.80775 24.0824 4.80775 24.1247 4.80775H24.2095C24.2518 4.80775 24.273 4.80775 24.3154 4.80775H24.4001C24.4424 4.80775 24.4636 4.80775 24.506 4.80775C24.5483 4.80775 24.5695 4.80775 24.6119 4.80775C24.6542 4.80775 24.6754 4.80775 24.7178 4.80775C24.739 4.80775 24.7813 4.80775 24.8025 4.80775C24.8449 4.80775 24.8661 4.80775 24.9084 4.80775C24.9508 4.80775 24.9931 4.80775 25.0355 4.80775H25.1202C25.1838 4.80775 25.2261 4.80775 25.2897 4.80775H25.332C25.3109 4.68066 25.3744 4.68066 25.4379 4.68066ZM39.396 13.8096L40.4974 14.8262L40.5186 15.2498H42.446C41.8953 14.678 41.3235 14.1484 40.7092 13.6401L41.3023 13.5554C41.9165 14.2755 42.5096 15.0592 43.0179 15.8853C43.7804 17.0926 44.437 18.4058 44.9242 19.7825L45.602 20.6721C45.7079 21.0957 45.7926 21.5405 45.8561 21.9853H45.835C45.8773 22.303 45.9409 22.6207 45.962 22.9384H45.9832C46.0044 23.1502 46.0256 23.3409 46.0468 23.5527C45.9832 23.5527 45.9197 23.5527 45.8773 23.5315C45.8985 23.7221 45.9409 23.8916 45.962 24.0822C44.7336 23.9975 43.5051 23.9339 42.2554 23.9339C30.2671 23.9339 19.2955 28.3819 10.9291 35.7316C8.68399 32.8086 7.20134 29.2503 6.84127 25.3742L24.6119 25.353L6.75655 23.0232C6.77773 22.0488 6.90481 21.0957 7.09544 20.1426L7.11662 20.0579V20.0367L7.1378 19.952V19.9308L7.15898 19.8461C7.18016 19.7401 7.20134 19.6554 7.22252 19.5495C7.2437 19.486 7.26488 19.4224 7.26488 19.3589C7.28606 19.2954 7.30725 19.2318 7.30725 19.1683L7.32843 19.0835V19.0624L7.34961 19.02L7.37079 18.9776L7.41315 18.8506L7.43433 18.7447L7.45551 18.7023L7.47669 18.6599C7.49787 18.5964 7.51905 18.5328 7.54023 18.4693L7.56141 18.3634C7.58259 18.2575 7.62496 18.1728 7.66732 18.0669C7.73086 17.8762 7.7944 17.6856 7.87912 17.495L7.92149 17.4103L7.96385 17.3255L8.00621 17.2196L8.04857 17.1137C8.85344 15.1439 10.0819 13.3012 11.6705 11.6915L11.734 11.6279L11.7552 11.6068L11.7976 11.5644L11.8187 11.5432L11.8823 11.4797C11.9246 11.4373 11.9882 11.3949 12.0305 11.3526L12.0517 11.3314C12.1576 11.2467 12.2635 11.1408 12.3694 11.0561C12.4118 11.0137 12.4753 10.9713 12.5177 10.929L12.5812 10.8654L12.6024 10.8443L12.6448 10.8019L12.666 10.7807L12.7295 10.7383L12.7507 10.7172L12.8142 10.6748H12.8354H12.8566L12.9201 10.6324L12.9413 10.6113L13.0049 10.5689L13.0472 10.5477L13.0896 10.5265L13.1319 10.4842H13.1531L13.1743 10.463L13.2167 10.4206L13.259 10.3783L13.3014 10.3571L13.3437 10.3147L13.3861 10.2724H13.4073H13.4285L13.492 10.23L13.5344 10.2088L13.5767 10.1665L13.6191 10.1453L13.6615 10.1241L13.6826 10.1029L13.725 10.0606L13.7674 10.0182L13.8097 9.97584L13.8521 9.93348L13.9792 9.74285L14.0004 9.72167L14.0427 9.70049L14.0851 9.65813L14.1274 9.63695L14.1698 9.59459L14.2122 9.57341L14.2545 9.55223L14.3181 9.50987L14.3392 9.48869L14.4028 9.44632L14.424 9.42514L14.4875 9.38278L14.5299 9.3616L14.5934 9.31924H14.6146H14.6358L14.6993 9.27688L14.7205 9.2557H24.8237L16.6903 8.23902H16.7115L16.7538 8.21784L16.7962 8.19666H16.8174L16.8597 8.17548H16.8809L16.9657 8.13312L17.008 8.11194C19.2955 7.20117 21.7525 6.71401 24.2095 6.62929C24.7813 6.60811 25.332 6.60811 25.9039 6.62929H25.9251H25.9463H25.9675H25.9886H26.0098H26.031H26.0522H26.0734H26.0945H26.1369H26.1581H26.1793H26.2004C26.264 6.62929 26.3275 6.62929 26.3911 6.62929H26.4122H26.4334H26.4546H26.4758H26.5605H26.5817H26.6029H26.6241H26.6452H26.6664H26.6876H26.7088H26.73H26.7511H26.7723H26.7935H26.8147H26.8359H26.857H26.9206C27.1324 6.65047 27.3654 6.67165 27.5984 6.69283H27.6407C28.4668 6.79874 29.314 6.92582 30.1189 7.11645V7.0529C32.3005 7.54006 34.3338 8.36611 36.1977 9.48869C36.5366 9.67931 36.8755 9.86994 37.1932 10.0817C37.8498 10.5265 38.4853 11.0349 39.0571 11.5856C39.7561 12.1998 40.4127 12.8776 41.0269 13.5977L39.396 13.8096ZM9.61594 36.9177C8.57809 35.6045 7.70968 34.1642 7.01071 32.6392C6.96835 32.5333 6.90481 32.4062 6.86245 32.3003L6.84127 32.2791C6.79891 32.2156 6.77773 32.1309 6.75655 32.0673C6.65064 31.8343 6.56592 31.6013 6.46002 31.3472L6.43884 31.326C6.41766 31.2625 6.37529 31.1777 6.35411 31.1142V31.093C6.33293 31.0083 6.29057 30.9447 6.26939 30.86C6.24821 30.7753 6.20585 30.7118 6.18467 30.627V30.6059C6.16349 30.5423 6.14231 30.4576 6.09994 30.394L6.07876 30.3517C6.05758 30.267 6.0364 30.2034 6.01522 30.1187C5.99404 30.034 5.97286 29.9493 5.9305 29.8645C5.88814 29.6951 5.8246 29.5256 5.78223 29.3774V29.3562C5.73987 29.1867 5.69751 29.0385 5.65515 28.869V28.8479C5.63397 28.7631 5.61279 28.6996 5.59161 28.6149V28.5937C5.57043 28.509 5.54925 28.4454 5.54925 28.3607V28.3183C5.52807 28.2336 5.50688 28.1701 5.50688 28.0854V28.0642C5.4857 27.9794 5.46452 27.8947 5.46452 27.81C5.44334 27.7253 5.44334 27.6406 5.42216 27.5558V27.5347C5.40098 27.4499 5.40098 27.3864 5.3798 27.3017V27.2805C5.35862 27.1958 5.35862 27.111 5.33744 27.0263V27.0051C5.31626 26.9204 5.31626 26.8357 5.29508 26.751V26.7298C5.2739 26.6451 5.2739 26.5603 5.25272 26.4756C5.23154 26.3909 5.23154 26.3062 5.23154 26.2426V26.2003C5.21035 25.9461 5.16799 25.6919 5.14681 25.4378H4.8291C4.8291 26.1155 4.87146 26.7933 4.93501 27.4499C4.95619 27.6194 4.97737 27.81 4.99855 27.9794V28.0006V28.0218V28.043V28.0642V28.0854V28.1065V28.1489V28.1701V28.1913V28.2124V28.276V28.2972V28.3183V28.3395V28.3819V28.4031V28.4666V28.4878V28.509V28.5301V28.5725V28.5937V28.6149V28.6572H5.04091C5.10445 29.0385 5.16799 29.4409 5.25272 29.8222H5.21035L5.23154 29.9069V29.9281V29.9493V29.9704V29.9916L5.25272 30.0763V30.0975V30.1187V30.1399V30.1611V30.1822V30.2034L5.2739 30.3093V30.3305L5.29508 30.394V30.4152V30.4364V30.4576V30.4788V30.5V30.5211C5.33744 30.7118 5.40098 30.9024 5.44334 31.093V31.1566C6.14231 33.55 7.2437 35.7528 8.70517 37.7014C9.06524 37.4472 9.34059 37.1931 9.61594 36.9177ZM4.97737 22.7902H4.93501L4.91382 22.8114C4.95619 22.4513 5.01973 22.1124 5.06209 21.7523V21.7735V21.7947V21.8159V21.837V21.8582V21.8794V21.9006V21.9218V21.9429V21.9641V22.0488V22.07V22.0912V22.1124V22.1336C5.06209 22.1759 5.06209 22.2395 5.04091 22.2818V22.303V22.3454V22.3666V22.3877V22.4089V22.4301V22.4513V22.4725V22.4936V22.5148V22.536V22.5572V22.5784V22.5995V22.6207V22.6419V22.6631V22.6843V22.7054V22.7266V22.7478H4.99855L4.97737 22.7902ZM38.9936 22.8961H39.7985C39.6714 22.8961 39.5231 22.8961 39.396 22.8961C39.2478 22.8961 39.1207 22.8961 38.9936 22.8961Z" fill="url(#paint0_linear_61_131)"/>
<path fill-rule="evenodd" clip-rule="evenodd" d="M5.88831 23.9341C5.88831 23.807 5.88831 23.6799 5.88831 23.5528C5.88831 23.5316 5.88831 23.5105 5.88831 23.5105C5.88831 18.999 7.60395 14.4875 11.0564 11.0562C14.5724 7.51903 19.5922 5.80339 24.5062 5.63394C25.6711 5.59158 26.836 5.63394 28.001 5.78221C31.517 6.18464 34.9694 7.41312 37.9559 9.31939C40.6882 11.1833 42.7851 13.8732 43.9289 16.9868C41.8532 14.2757 39.0785 12.0729 35.8378 10.7385C35.7955 10.7173 35.7531 10.7173 35.7108 10.7173C35.2871 10.6538 34.8847 10.9715 34.8212 11.3951C34.5246 14.2969 35.3083 17.3257 37.2358 19.825C39.9257 23.3198 44.1619 24.9084 48.2286 24.3577C49.7959 20.5663 49.3511 16.0549 46.6612 12.56C45.0091 10.4208 42.7639 8.98049 40.3493 8.32389C40.0952 8.19681 39.841 8.0909 39.5868 7.985C39.9681 7.81556 40.3493 7.60375 40.6882 7.3284C42.1709 6.18464 42.8487 4.3631 42.6157 2.62628C40.9848 1.96968 39.0785 2.1603 37.5747 3.30406C37.257 3.53705 37.0028 3.8124 36.7486 4.08775C27.6197 -2.18174 15.0172 -1.24979 6.88381 6.8836C-2.28744 16.0549 -2.28744 30.9449 6.88381 40.1161C14.5936 47.8471 26.3701 49.0544 35.3719 43.7804C35.4354 43.738 35.499 43.7169 35.5625 43.6745C35.626 43.6321 35.6684 43.611 35.7319 43.5686C38.083 42.1283 40.1799 40.2644 41.8955 38.104L42.0014 38.2099L41.8532 38.0616C38.0406 41.98 32.7243 44.4158 26.836 44.4158C15.3985 44.437 6.10012 35.2869 5.88831 23.9341Z" fill="#63AB52"/>
<path fill-rule="evenodd" clip-rule="evenodd" d="M45.9624 25.8832C46.0048 25.862 46.0471 25.862 46.0895 25.8408C45.8353 25.8408 45.6023 25.8408 45.3482 25.8408C44.0985 25.8408 42.8489 25.8832 41.6204 25.9891C33.8894 26.5821 26.688 29.0391 20.4397 32.9152V32.9575C17.898 34.5249 15.5046 36.3465 13.3018 38.3586C15.2927 40.159 17.6438 41.5781 20.2279 42.4889C25.3748 36.0287 32.195 30.9242 40.0106 27.853C41.9804 27.0693 44.0138 26.4339 46.1107 25.9255C46.0683 25.8832 46.026 25.8832 45.9624 25.8832ZM39.7776 32.4916C39.6294 32.6822 39.4811 32.8728 39.3329 33.0634C39.4599 32.8728 39.6082 32.6822 39.7776 32.4916ZM38.8881 33.6353C38.6974 33.8895 38.5068 34.1648 38.3162 34.419C38.5068 34.1437 38.6763 33.8895 38.8881 33.6353ZM35.2662 39.9472C35.1603 40.1802 35.0755 40.392 34.9908 40.625C35.0755 40.4132 35.1603 40.1802 35.2662 39.9472ZM34.4825 42.0229C33.6988 42.3406 32.8939 42.6159 32.0679 42.8278C34.8214 37.6173 38.528 32.9787 42.9336 29.145C43.802 28.3825 44.6916 27.6624 45.6235 26.9846C45.7294 26.921 45.8142 26.8363 45.9201 26.7728C45.9836 26.7304 46.0471 26.688 46.1319 26.6245C46.2589 26.5398 46.386 26.4551 46.5131 26.3703C46.3225 27.7894 46.0048 29.1662 45.5176 30.4794C44.6704 32.8305 43.3995 34.9485 41.7898 36.7912L41.7686 36.8124C40.4766 38.2739 38.9728 39.5447 37.3207 40.5826C37.3207 40.5826 37.3207 40.5826 37.2995 40.5826C36.8335 40.8579 36.3676 41.1333 35.8804 41.3875C35.4356 41.6204 34.9484 41.8323 34.4825 42.0229ZM42.044 29.9922C42.1075 29.9287 42.1499 29.8863 42.2134 29.8228C42.277 29.7593 42.3193 29.7169 42.3829 29.6533C42.4464 29.5898 42.4888 29.5474 42.5523 29.4839C42.6159 29.4204 42.6794 29.378 42.7218 29.3145C42.7853 29.2509 42.8488 29.2086 42.8912 29.145L42.044 29.9922ZM39.1634 29.8863C37.8714 31.1784 36.6429 32.5551 35.478 33.9742C34.0165 35.7958 32.6609 37.7232 31.4748 39.7565L31.4113 39.8413V39.8625L31.3265 40.0107L31.2418 40.1802L31.1571 40.3284L31.1359 40.3708L31.0724 40.4979L31.0512 40.5614L30.9877 40.6673L30.9665 40.7097L30.9029 40.8368L30.8817 40.8791L30.8182 41.0062L30.797 41.0486L30.7123 41.1968L30.6276 41.3451V41.3663L30.6064 41.3875L30.5429 41.5145L30.5217 41.5569V41.5781L30.4793 41.6416V41.6628L30.4158 41.7899V41.8111L30.3734 41.8746L30.3522 41.917L30.2887 42.0652V42.0864L30.204 42.2559V42.2771L30.1192 42.4253V42.4465V42.4677C30.0345 42.6371 29.9498 42.8066 29.8651 42.9548C29.8015 43.1031 29.7168 43.2514 29.6533 43.3996C28.7637 43.5267 27.8529 43.5903 26.9421 43.5903C25.5442 43.5903 24.1886 43.442 22.8543 43.1666C22.9178 43.0819 22.9813 42.9972 23.0449 42.9125C27.0904 37.6173 33.2752 33.1905 39.1634 29.8863Z" fill="#5B8C51"/>
</g>
<defs>
<linearGradient id="paint0_linear_61_131" x1="14.7058" y1="40.0355" x2="34.016" y2="9.13274" gradientUnits="userSpaceOnUse">
<stop stop-color="#F78D2D"/>
<stop offset="1" stop-color="#FFF200"/>
</linearGradient>
<clipPath id="clip0_61_131">
<rect width="49.1181" height="47" fill="white"/>
</clipPath>
</defs>
</svg>
